<?xml version="1.0" encoding="UTF-8"?>
<svg width="50px" height="76px" viewBox="0 0 50 76" version="1.1" xmlns="http://www.w3.org/2000/svg" xmlns:xlink="http://www.w3.org/1999/xlink">
    <!-- Generator: Sketch 42 (36781) - http://www.bohemiancoding.com/sketch -->
    <title>Combined-Shape</title>
    <desc>Created with Sketch.</desc>
    <defs></defs>
    <g id="Page-1" stroke="none" stroke-width="1" fill="none" fill-rule="evenodd">
        <g id="logo" fill-rule="nonzero" fill="#FFFFFF">
            <g id="Page-1">
                <g id="Artboard">
                    <path d="M27.230521,50.40511 L22.526625,50.40511 L22.526625,76 L19.961856,76 L19.961856,50.40511 L14.308449,50.40511 L14.308449,47.84034 L16.196556,47.84034 L16.196556,38.048095 L16.198857,38.048095 C16.306151,33.39313 20.151113,29.652247 24.878573,29.652247 C29.606034,29.652247 33.450996,33.39313 33.558289,38.048095 L33.560591,38.048095 L33.560591,47.84034 L35.448698,47.84034 L35.448698,50.40511 L29.795291,50.40511 L29.795291,68.003954 L27.230521,68.003954 L27.230521,50.40511 Z M12.962905,25.402083 C12.666473,26.045305 11.904734,26.326433 11.261512,26.030002 C10.61829,25.73357 10.337161,24.97183 10.633593,24.328608 C10.769526,24.033651 11.029751,23.562346 11.426811,22.973104 C12.075811,22.009978 12.886042,21.050266 13.871208,20.154526 C16.684195,17.596883 20.341041,16.058969 24.881088,16.058969 C29.421134,16.058969 33.07798,17.596883 35.890967,20.154526 C36.876133,21.050266 37.686364,22.009978 38.335364,22.973104 C38.732425,23.562346 38.992649,24.033651 39.128582,24.328608 C39.425014,24.97183 39.143885,25.73357 38.500663,26.030002 C37.857441,26.326433 37.095702,26.045305 36.79927,25.402083 C36.784879,25.370857 36.743327,25.288323 36.673522,25.161896 C36.54938,24.937057 36.394682,24.68275 36.208423,24.40634 C35.669136,23.60603 34.990598,22.802307 34.165575,22.052173 C31.806591,19.907322 28.754491,18.623739 24.881088,18.623739 C21.007684,18.623739 17.955584,19.907322 15.5966,22.052173 C14.771577,22.802307 14.093039,23.60603 13.553752,24.40634 C13.367493,24.68275 13.212795,24.937057 13.088653,25.161896 C13.018848,25.288323 12.977296,25.370857 12.962905,25.402083 Z M8.34632,19.848391 C8.049888,20.491612 7.288149,20.772741 6.644927,20.476309 C6.001705,20.179878 5.720576,19.418138 6.017008,18.774916 C6.191157,18.397035 6.531506,17.780613 7.054292,17.004792 C7.912836,15.7307 8.985597,14.460023 10.289973,13.2740489 C14.014988,9.8871652 18.854895,7.851707 24.878573,7.851707 C30.902252,7.851707 35.742158,9.8871652 39.467173,13.2740489 C40.771549,14.460023 41.84431,15.7307 42.702854,17.004792 C43.22564,17.780613 43.56599,18.397035 43.740138,18.774916 C44.03657,19.418138 43.755441,20.179878 43.11222,20.476309 C42.468998,20.772741 41.707258,20.491612 41.410826,19.848391 C41.386882,19.796434 41.32576,19.675029 41.225908,19.494183 C41.051688,19.178646 40.835512,18.823275 40.575913,18.438027 C39.827083,17.326752 38.886015,16.212064 37.741781,15.171696 C34.470769,12.1976038 30.23561,10.4164764 24.878573,10.4164764 C19.521537,10.4164764 15.286378,12.1976038 12.015365,15.171696 C10.871132,16.212064 9.930064,17.326752 9.181233,18.438027 C8.921634,18.823275 8.705458,19.178646 8.531238,19.494183 C8.431386,19.675029 8.370265,19.796434 8.34632,19.848391 Z M2.44735,15.389204 C2.150919,16.032426 1.389179,16.313555 0.745957,16.017123 C0.102735,15.720691 -0.178393,14.958952 0.118038,14.31573 C0.341045,13.831832 0.783832,13.0298821 1.467355,12.0155239 C2.593795,10.3438717 4.002194,8.6756331 5.714672,7.1186023 C10.605692,2.6715558 16.958109,0 24.878573,0 C32.799038,0 39.151455,2.6715558 44.042474,7.1186023 C45.754952,8.6756331 47.163351,10.3438717 48.289791,12.0155239 C48.973315,13.0298821 49.416102,13.831832 49.639108,14.31573 C49.93554,14.958952 49.654411,15.720691 49.011189,16.017123 C48.367968,16.313555 47.606228,16.032426 47.309796,15.389204 C47.273637,15.310743 47.187496,15.139644 47.04923,14.889225 C46.810987,14.457732 46.516213,13.9731541 46.16285,13.4487595 C45.146124,11.9399237 43.869417,10.4276742 42.317083,9.0162495 C37.880066,4.9819945 32.132396,2.5647694 24.878573,2.5647694 C17.624751,2.5647694 11.877081,4.9819945 7.440064,9.0162495 C5.887729,10.4276742 4.611023,11.9399237 3.594296,13.4487595 C3.240934,13.9731541 2.946159,14.457732 2.707916,14.889225 C2.56965,15.139644 2.48351,15.310743 2.44735,15.389204 Z" id="Combined-Shape"></path>
                </g>
            </g>
        </g>
    </g>
</svg>