<svg id="Layer_1" data-name="Layer 1" xmlns="http://www.w3.org/2000/svg" viewBox="0 0 133.89 120.51"><title>Artboard 2</title><path d="M133.16,57.6l-16.44-3.06a1.42,1.42,0,0,1-1-.84l-5-11.76a1.36,1.36,0,0,1,.08-1.27l9.58-14a.93.93,0,0,0-.11-1.14l-12-12a.93.93,0,0,0-1.13-.1L93,23.27a1.4,1.4,0,0,1-1.28.09l-11.4-4.67a1.39,1.39,0,0,1-.84-1L76.28.73A.93.93,0,0,0,75.4,0H58.48a.93.93,0,0,0-.88.73l-3.16,17a1.39,1.39,0,0,1-.84,1l-11.4,4.67a1.4,1.4,0,0,1-1.28-.09l-14.2-9.75a.93.93,0,0,0-1.14.1l-12,12a.93.93,0,0,0-.1,1.14l9.58,14A1.37,1.37,0,0,1,23.18,42l-5,11.76a1.41,1.41,0,0,1-1,.84L.73,57.6a.93.93,0,0,0-.73.88V75.4a.93.93,0,0,0,.73.88l16,3a1.36,1.36,0,0,1,1,.84l5,12.5a1.4,1.4,0,0,1-.1,1.28l-9.11,13.27a.93.93,0,0,0,.1,1.14l12,12a.93.93,0,0,0,1.14.11l13-8.95a1.28,1.28,0,0,1,1.25,0l5.75,3.07a.68.68,0,0,0,.94-.35L59.56,85.45a.9.9,0,0,0-.35-1.07l-1.44-.88a6.83,6.83,0,0,1-.91-.7A18.71,18.71,0,1,1,77,82.8a6.74,6.74,0,0,1-.91.7l-1.44.88a.9.9,0,0,0-.35,1.07L86.18,114.1a.68.68,0,0,0,.95.35l5.75-3.07a1.28,1.28,0,0,1,1.25,0l13,8.95a.93.93,0,0,0,1.13-.11l12-12a.93.93,0,0,0,.11-1.14l-9.11-13.27a1.41,1.41,0,0,1-.09-1.28l5-12.5a1.36,1.36,0,0,1,1-.84l16-3a.93.93,0,0,0,.73-.88V58.48A.93.93,0,0,0,133.16,57.6Zm-2.87,15.95-13.82,2.57a4.95,4.95,0,0,0-3.65,3.08l-5,12.41a4.74,4.74,0,0,0-.39,1.92,4.87,4.87,0,0,0,.84,2.78l7.83,11.42-8.78,8.78-11.18-7.68a4.86,4.86,0,0,0-5-.25h0l-2.9,1.55L78.53,86.6c.23-.17.45-.34.67-.53a22.31,22.31,0,1,0-24.51,0c.22.18.43.36.67.53l-9.74,23.55-2.9-1.55a4.87,4.87,0,0,0-5,.25l-11.18,7.67-8.78-8.78L25.6,96.32a4.89,4.89,0,0,0,.84-2.78A4.83,4.83,0,0,0,26,91.63l-5-12.44a4.95,4.95,0,0,0-3.65-3.06L3.6,73.55V61.13l14.23-2.65a5,5,0,0,0,3.62-3h0l5-11.69a4.8,4.8,0,0,0,.44-2,4.86,4.86,0,0,0-.82-2.74L17.76,26.94l8.78-8.78,12.35,8.48a4.86,4.86,0,0,0,2.77.83,4.77,4.77,0,0,0,1.93-.39l11.35-4.65a5,5,0,0,0,3-3.63L60.73,4H73.15L75.9,18.79a5,5,0,0,0,3,3.65l11.36,4.65a4.79,4.79,0,0,0,1.91.38A4.9,4.9,0,0,0,95,26.64l12.35-8.48,8.78,8.78L107.82,39a4.95,4.95,0,0,0-.42,4.73l5,11.76h0a5,5,0,0,0,3.62,3l14.23,2.65Z"/></svg>