<svg id="Layer_1" data-name="Layer 1" xmlns="http://www.w3.org/2000/svg" viewBox="0 0 172.24 180.99"><defs><style>.cls-1{fill-rule:evenodd;}</style></defs><title>Artboard 2</title><path class="cls-1" d="M45.6,180.78h3.61V168.53c0-4.43-3-5.91-7.47-5.91-2.69,0-4.68.71-6.06,2.62l2.83,2.16c.64-1,1.52-1.38,3.4-1.38,2.58,0,3.68.6,3.68,2.3v1.88h-5c-3.86,0-5.84,2.45-5.84,5.31,0,3.12,2.34,5.49,6.34,5.49,2.44,0,3.68-.57,4.43-1.81h.07Zm0-6.3c0,2.8-1,3.12-4,3.12-2.44,0-3.4-1.06-3.4-2.27s1-2.16,3.12-2.16H45.6Z"/><path class="cls-1" d="M53.18,180.78h3.61V170a3.41,3.41,0,0,1,3.51-3.75,3.54,3.54,0,0,1,2.37.89L65.29,164a6,6,0,0,0-3.75-1.38,5.75,5.75,0,0,0-4.67,2.12h-.07v-1.91H53.18Z"/><path class="cls-1" d="M76.09,180.78h3.61V155.56H76.09v9.17a6.61,6.61,0,0,0-4.64-2.12A5.85,5.85,0,0,0,66.64,165c-1,1.27-1.27,2.44-1.27,6.84s.28,5.59,1.27,6.87A5.85,5.85,0,0,0,71.45,181a6.34,6.34,0,0,0,4.64-2.09Zm-3.54-14.56c3.36,0,3.54,3,3.54,5.56s-.18,5.59-3.54,5.59S69,174.58,69,171.79s.18-5.56,3.58-5.56"/><polygon class="cls-1" points="98.14 180.78 101.33 180.78 107.07 162.83 103.24 162.83 99.81 175.4 99.74 175.4 95.66 162.83 93.04 162.83 88.97 175.4 88.9 175.4 85.46 162.83 81.64 162.83 87.38 180.78 90.56 180.78 94.32 168.21 94.39 168.21 98.14 180.78"/><path class="cls-1" d="M118.19,180.78h3.61V168.53c0-4.43-3-5.91-7.47-5.91-2.69,0-4.68.71-6.06,2.62l2.83,2.16c.64-1,1.52-1.38,3.4-1.38,2.59,0,3.68.6,3.68,2.3v1.88h-5c-3.86,0-5.84,2.45-5.84,5.31,0,3.12,2.34,5.49,6.34,5.49,2.44,0,3.68-.57,4.43-1.81h.07Zm0-6.3c0,2.8-1,3.12-4,3.12-2.44,0-3.4-1.06-3.4-2.27s1-2.16,3.12-2.16h4.32Z"/><path class="cls-1" d="M125.77,180.78h3.61V170a3.41,3.41,0,0,1,3.51-3.75,3.54,3.54,0,0,1,2.37.89l2.62-3.12a6,6,0,0,0-3.75-1.38,5.75,5.75,0,0,0-4.67,2.12h-.07v-1.91h-3.61Z"/><path class="cls-1" d="M152.75,173.17v-3a7.29,7.29,0,0,0-7.4-7.58c-3.47,0-7.4,2.27-7.4,9.24,0,7.37,4.29,9.14,8,9.14a8.27,8.27,0,0,0,6.48-2.9l-2.62-2.23a5.64,5.64,0,0,1-3.93,1.74c-2.48,0-4.29-1.49-4.29-4.43Zm-11.19-3c.07-2.73,1.66-4.18,3.79-4.18s3.68,1.45,3.79,4.18Z"/><path class="cls-1" d="M0,143.43c0,3.89.57,5.38,1.95,6.91a7,7,0,0,0,5.46,2.3,7,7,0,0,0,5.45-2.3c1.38-1.52,1.95-3,1.95-6.91s-.57-5.35-1.95-6.87a7,7,0,0,0-5.45-2.3,7,7,0,0,0-5.46,2.3c-1.38,1.52-1.95,3-1.95,6.87m11.19,0c0,2.59-.21,3.29-.88,4.25A3.65,3.65,0,0,1,7.4,149a3.65,3.65,0,0,1-2.9-1.31c-.67-1-.89-1.66-.89-4.29s.21-3.29.89-4.25a3.65,3.65,0,0,1,2.9-1.31,3.65,3.65,0,0,1,2.9,1.31c.67,1,.88,1.66.88,4.29"/><path class="cls-1" d="M49.47,144.81v-3a7.29,7.29,0,0,0-7.4-7.58c-3.47,0-7.4,2.27-7.4,9.24,0,7.37,4.28,9.14,8,9.14a8.27,8.27,0,0,0,6.48-2.9l-2.62-2.23a5.64,5.64,0,0,1-3.93,1.74c-2.48,0-4.29-1.49-4.29-4.43Zm-11.19-3c.07-2.73,1.67-4.18,3.79-4.18s3.68,1.45,3.79,4.18Z"/><path class="cls-1" d="M52.55,152.42h3.61V141.73c0-2.45,1.52-3.86,3.58-3.86s3.54,1.42,3.54,3.86v10.69H66.9V140.49a6,6,0,0,0-6-6.23,5.75,5.75,0,0,0-4.67,2.13h-.07v-1.91H52.55Z"/><path class="cls-1" d="M76.66,149.41a11.3,11.3,0,0,0,7.9,3.22c4.18,0,7.44-2,7.44-5.53,0-2.87-1.49-5.13-5.21-5.38l-3-.21c-1.81-.14-2.37-.92-2.37-1.7,0-1.24.78-2.16,3.08-2.16a8,8,0,0,1,4.82,1.66l2.23-2.62a10.27,10.27,0,0,0-7-2.45c-3.79,0-6.69,1.88-6.69,5.53,0,3.08,2.2,4.85,5.17,5.1l3.19.28c1.24.11,2.2.5,2.2,1.77,0,1.52-1.49,2.3-3.54,2.3a7.52,7.52,0,0,1-5.67-2.3Z"/><path class="cls-1" d="M94.05,143.43c0,3.89.57,5.38,1.95,6.91a7.61,7.61,0,0,0,10.91,0c1.38-1.52,1.95-3,1.95-6.91s-.57-5.35-1.95-6.87a7.61,7.61,0,0,0-10.91,0c-1.38,1.52-1.95,3-1.95,6.87m11.19,0c0,2.59-.21,3.29-.88,4.25a3.87,3.87,0,0,1-5.81,0c-.67-1-.89-1.66-.89-4.29s.21-3.29.89-4.25a3.87,3.87,0,0,1,5.81,0c.67,1,.88,1.66.88,4.29"/><path class="cls-1" d="M111.94,146.4a6,6,0,0,0,6,6.23,5.73,5.73,0,0,0,4.64-2.12h.07v1.91h3.61v-18h-3.61v10.7c0,2.44-1.52,3.86-3.54,3.86s-3.58-1.42-3.58-3.86v-10.7h-3.61Z"/><path class="cls-1" d="M130.24,152.42h3.61v-10.8a3.41,3.41,0,0,1,3.51-3.75,3.55,3.55,0,0,1,2.37.88l2.62-3.12a6,6,0,0,0-3.75-1.38,5.76,5.76,0,0,0-4.68,2.13h-.07v-1.91h-3.61Z"/><path class="cls-1" d="M153.86,147.14a4.72,4.72,0,0,1-3.65,1.88c-2.94,0-4.68-1.67-4.68-5.56s1.74-5.59,4.68-5.59a4.72,4.72,0,0,1,3.65,1.88l2.66-2.37a8.39,8.39,0,0,0-6.45-3.12c-4.14,0-8.14,2.62-8.14,9.21s4,9.17,8.14,9.17a8.4,8.4,0,0,0,6.45-3.12Z"/><path class="cls-1" d="M172.24,144.81v-3a7.29,7.29,0,0,0-7.4-7.58c-3.47,0-7.4,2.27-7.4,9.24,0,7.37,4.29,9.14,8,9.14a8.26,8.26,0,0,0,6.48-2.9l-2.62-2.23a5.64,5.64,0,0,1-3.93,1.74c-2.48,0-4.29-1.49-4.29-4.43Zm-11.19-3c.07-2.73,1.66-4.18,3.79-4.18s3.68,1.45,3.79,4.18Z"/><path d="M25,149c3.4,0,3.58-2.8,3.58-5.56s-.18-5.6-3.58-5.6-3.54,3-3.54,5.6S21.68,149,25,149m-7.17,31.76V134.46H21.5v1.88a6.34,6.34,0,0,1,4.64-2.09A5.86,5.86,0,0,1,31,136.59c1,1.28,1.27,2.44,1.27,6.87S31.95,149,31,150.29a5.86,5.86,0,0,1-4.82,2.34,6.61,6.61,0,0,1-4.64-2.12v14.23a6.1,6.1,0,0,1,10.73,4.11v11.94H28.6v-10.7c0-2.45-1.52-3.86-3.54-3.86s-3.58,1.42-3.58,3.86v10.7Z"/><path d="M152.34,57.6,135.9,54.55a1.42,1.42,0,0,1-1-.84l-5-11.76a1.36,1.36,0,0,1,.08-1.27l9.58-14a.93.93,0,0,0-.11-1.14l-12-12a.93.93,0,0,0-1.13-.1l-14.21,9.75a1.4,1.4,0,0,1-1.28.09l-11.4-4.67a1.39,1.39,0,0,1-.84-1L95.46.73A.93.93,0,0,0,94.58,0H77.66a.93.93,0,0,0-.88.73l-3.16,17a1.39,1.39,0,0,1-.84,1l-11.4,4.67a1.4,1.4,0,0,1-1.28-.09L45.9,13.52a.93.93,0,0,0-1.14.1l-12,12a.93.93,0,0,0-.1,1.14l9.58,14A1.37,1.37,0,0,1,42.36,42l-5,11.76a1.41,1.41,0,0,1-1,.84L19.9,57.6a.93.93,0,0,0-.73.88V75.4a.93.93,0,0,0,.73.88l16,3a1.36,1.36,0,0,1,1,.84l5,12.5a1.4,1.4,0,0,1-.1,1.28L32.7,107.16a.93.93,0,0,0,.1,1.14l12,12a.93.93,0,0,0,1.14.11l13-8.95a1.28,1.28,0,0,1,1.25,0l5.75,3.07a.68.68,0,0,0,.94-.35L78.74,85.45a.9.9,0,0,0-.35-1.07L77,83.5a6.83,6.83,0,0,1-.91-.7,18.71,18.71,0,1,1,20.15,0,6.74,6.74,0,0,1-.91.7l-1.44.88a.9.9,0,0,0-.35,1.07l11.86,28.65a.68.68,0,0,0,.95.35l5.75-3.07a1.28,1.28,0,0,1,1.25,0l13,8.95a.93.93,0,0,0,1.13-.11l12-12a.93.93,0,0,0,.11-1.14l-9.11-13.27a1.41,1.41,0,0,1-.09-1.28l5-12.5a1.36,1.36,0,0,1,1-.84l16-3a.93.93,0,0,0,.73-.88V58.48A.93.93,0,0,0,152.34,57.6Zm-2.87,15.95-13.82,2.57A4.95,4.95,0,0,0,132,79.21l-5,12.41a4.74,4.74,0,0,0-.39,1.92,4.87,4.87,0,0,0,.84,2.78l7.83,11.42-8.78,8.78-11.18-7.68a4.86,4.86,0,0,0-5-.25h0l-2.9,1.55L97.71,86.6c.23-.17.45-.34.67-.53a22.31,22.31,0,1,0-24.51,0c.22.18.43.36.67.53l-9.74,23.55-2.9-1.55a4.87,4.87,0,0,0-5,.25l-11.18,7.67-8.78-8.78,7.84-11.42a4.89,4.89,0,0,0,.84-2.78,4.83,4.83,0,0,0-.39-1.92l-5-12.44a4.95,4.95,0,0,0-3.65-3.06L22.78,73.55V61.13L37,58.48a5,5,0,0,0,3.62-3h0l5-11.69a4.8,4.8,0,0,0,.44-2,4.86,4.86,0,0,0-.82-2.74L36.94,26.94l8.78-8.78,12.35,8.48a4.86,4.86,0,0,0,2.77.83,4.77,4.77,0,0,0,1.93-.39l11.35-4.65a5,5,0,0,0,3-3.63L79.91,4H92.33l2.75,14.79a5,5,0,0,0,3,3.65l11.36,4.65a4.79,4.79,0,0,0,1.91.38,4.9,4.9,0,0,0,2.77-.83l12.35-8.48,8.78,8.78L127,39a4.95,4.95,0,0,0-.42,4.73l5,11.76h0a5,5,0,0,0,3.62,3l14.23,2.65Z"/></svg>