<svg id="Layer_1" data-name="Layer 1" xmlns="http://www.w3.org/2000/svg" viewBox="0 0 133.89 120.51"><defs><style>.cls-1{stroke:#000;stroke-miterlimit:10;stroke-width:0.75px;}</style></defs><title>Artboard 3</title><g id="path3773"><path class="cls-1" d="M88.42,119.37a1.49,1.49,0,0,1-1.39-1L73.08,82a1.49,1.49,0,0,1,.86-1.93,19.22,19.22,0,1,0-24.84-11A19.32,19.32,0,0,0,60.16,80.14,1.49,1.49,0,0,1,61,82.07L47.07,118.41a1.49,1.49,0,0,1-1.93.86A61.17,61.17,0,0,1,10,40.26a61.14,61.14,0,0,1,112.94-3,61.16,61.16,0,0,1-34,82A1.49,1.49,0,0,1,88.42,119.37ZM67,4a58.18,58.18,0,0,0-22.2,111.94L57.72,82.34A22.21,22.21,0,1,1,87.78,54.21a22.21,22.21,0,0,1-11.4,28.11l12.89,33.6A58.19,58.19,0,0,0,67,4Z"/></g></svg>