<?xml version="1.0" standalone="no"?>
<!DOCTYPE svg PUBLIC "-//W3C//DTD SVG 20010904//EN"
 "http://www.w3.org/TR/2001/REC-SVG-20010904/DTD/svg10.dtd">
<svg version="1.0" xmlns="http://www.w3.org/2000/svg"
 width="16.000000pt" height="16.000000pt" viewBox="0 0 16.000000 16.000000"
 preserveAspectRatio="xMidYMid meet">
<metadata>
Created by potrace 1.11, written by Peter Selinger 2001-2013
</metadata>
<g transform="translate(0.000000,16.000000) scale(0.002286,-0.002286)"
fill="#000000" stroke="none">
<path d="M3318 6025 c-1 -1 -30 -6 -63 -9 -575 -62 -1080 -379 -1370 -861 -61
-101 -66 -144 -23 -180 31 -26 66 -30 99 -10 9 6 38 46 65 90 68 115 141 208
231 300 102 103 147 142 263 219 295 199 611 287 1009 280 86 -1 170 -4 186
-7 17 -3 50 -9 75 -12 37 -5 130 -24 200 -40 47 -11 208 -73 288 -112 286
-138 553 -392 714 -682 30 -55 96 -64 138 -19 40 43 23 94 -82 251 -179 267
-472 513 -758 635 -152 66 -361 125 -480 138 -36 3 -69 9 -74 12 -10 6 -412
13 -418 7z"/>
<path d="M3438 5505 c-2 -1 -39 -5 -83 -9 -402 -31 -752 -216 -989 -521 -76
-98 -134 -192 -139 -225 -6 -38 18 -77 56 -89 51 -17 78 -2 122 70 207 339
543 554 925 594 58 6 278 6 310 1 14 -3 43 -7 66 -9 160 -18 386 -108 534
-213 119 -84 265 -245 338 -371 48 -84 94 -101 149 -57 23 18 28 29 27 62 -3
108 -252 399 -457 534 -235 154 -453 218 -784 232 -40 2 -74 2 -75 1z"/>
<path d="M3438 4955 c-2 -1 -37 -5 -78 -8 -278 -22 -562 -181 -729 -406 -99
-133 -116 -190 -70 -236 27 -28 92 -27 119 2 11 12 20 25 20 28 0 16 86 130
142 186 136 140 326 232 522 255 104 12 292 3 343 -17 13 -5 23 -6 23 -4 0 12
180 -61 243 -98 89 -52 228 -188 290 -284 56 -87 76 -100 127 -84 65 19 75 76
29 156 -25 45 -109 151 -162 207 -142 147 -392 268 -607 293 -56 7 -208 14
-212 10z"/>
<path d="M3409 4038 c-181 -23 -352 -147 -435 -313 -56 -115 -62 -160 -63
-544 -1 -190 -3 -346 -5 -348 -2 -2 -30 -4 -62 -4 l-59 -1 0 -86 0 -87 182 0
c100 0 185 -4 189 -8 5 -4 8 -389 9 -855 l0 -847 85 0 85 0 0 855 0 855 155 0
155 0 3 -584 c1 -332 6 -587 11 -590 7 -5 83 -6 149 -2 9 1 12 126 12 589 l0
587 188 0 187 0 1 88 1 87 -64 0 -63 0 0 353 c-1 256 -4 368 -14 412 -65 292
-343 483 -647 443z"/>
</g>
</svg>
