<svg id="svg3290" xmlns="http://www.w3.org/2000/svg" viewBox="0 0 678.03 805.77"><defs><style>.cls-1,.cls-3{fill:none;stroke:#000}.cls-1{stroke-linejoin:round;stroke-width:20px}.cls-2,.cls-4{isolation:isolate}.cls-3{stroke-width:6.67px}.cls-4{font-size:40px;font-family:OpenSans-Bold,Open Sans;font-weight:700}</style></defs><title>Artboard 1</title><path id="path3773" class="cls-1" d="M393.33 397.5a97.11 97.11 0 1 0-69.61 0L258.31 568C114.1 512.61 42.06 350.83 97.41 206.62S314.54-9.62 458.75 45.73 675 262.86 619.64 407.07A279.69 279.69 0 0 1 458.75 568z"/><g id="text7890-3-1" class="cls-2"><path d="M65.36 652.3q0 14.68-7.25 22.93t-20 8.25a26.16 26.16 0 0 1-14-3.78 24.79 24.79 0 0 1-9.46-10.85 38.42 38.42 0 0 1-3.33-16.54q0-14.68 7.2-22.87t20-8.19q12.36 0 19.64 8.38t7.2 22.67zm-44.87 0q0 11.5 4.51 17.53t13.27 6q8.76 0 13.3-6t4.54-17.56q0-11.45-4.54-17.39T38.17 629q-8.76 0-13.22 5.86t-4.46 17.44zm87.91 31.17a25.07 25.07 0 0 1-10.51-2.16 19.84 19.84 0 0 1-8-6.66h-.65a82.14 82.14 0 0 1 .65 10v24.71H81v-87h7.25l1.24 8.22h.43a20.83 20.83 0 0 1 8-7.12 24 24 0 0 1 10.48-2.19q11.71 0 18.08 8.16t6.37 22.9q0 14.79-6.48 23t-17.97 8.14zM107.11 629q-9 0-13.06 5.09t-4.14 16.21v2q0 12.65 4.14 18.11t13.27 5.45a13.73 13.73 0 0 0 12-6.3q4.32-6.3 4.33-17.37 0-11.23-4.33-17.23a14.14 14.14 0 0 0-12.21-5.96zm66.2 54.47q-13.06 0-20.61-8.11t-7.55-22.52q0-14.52 7-23.06t18.85-8.54q11.07 0 17.52 7.42t6.48 19.59V654h-40.6q.27 10.57 5.24 16.05t14 5.48a46.66 46.66 0 0 0 18.81-4.05v8.11a46.5 46.5 0 0 1-8.95 3 49.36 49.36 0 0 1-10.19.88zm-2.42-54.62a14.43 14.43 0 0 0-11.31 4.71q-4.22 4.71-5 13h30.82q0-8.6-3.76-13.17t-10.75-4.54zm79.59 53.53v-38.84q0-7.34-3.28-11T236.94 629q-9.24 0-13.54 5.09t-4.3 16.82v31.5h-8.92v-60h7.25l1.45 8.22h.43a18.33 18.33 0 0 1 7.68-6.87 24.57 24.57 0 0 1 11-2.44q10.64 0 16 5.23t5.37 16.74v39.17z" class="cls-2"/></g><g id="text7890-3-1-1" class="cls-2"><path d="M374.4 664q0 8.38-6.13 12.93t-17.2 4.55q-11.72 0-18.27-3.78v-8.44a43.55 43.55 0 0 0 9.11 3.45 37.35 37.35 0 0 0 9.39 1.29q7 0 10.75-2.27a7.91 7.91 0 0 0 .78-12.93q-3-2.49-11.63-5.89a62.5 62.5 0 0 1-11.69-5.45 16.13 16.13 0 0 1-5.16-5.29 14 14 0 0 1-1.69-7.07 13.55 13.55 0 0 1 5.86-11.59q5.86-4.25 16.07-4.25a46.26 46.26 0 0 1 18.59 3.94l-3.17 7.4a42 42 0 0 0-16.07-3.72q-6.34 0-9.57 2a6.29 6.29 0 0 0-3.22 5.59 6.9 6.9 0 0 0 1.21 4.11 12 12 0 0 0 3.9 3.23 86 86 0 0 0 10.32 4.44q10.48 3.89 14.16 7.83a14 14 0 0 1 3.66 9.92zm65.35-13.7q0 14.68-7.25 22.93t-20 8.25a26.15 26.15 0 0 1-14-3.78 24.79 24.79 0 0 1-9.5-10.86 38.42 38.42 0 0 1-3.33-16.54q0-14.68 7.2-22.87t20-8.19q12.36 0 19.64 8.38t7.24 22.68zm-44.87 0q0 11.5 4.51 17.53t13.27 6q8.76 0 13.3-6t4.54-17.56q0-11.45-4.54-17.39T412.55 627q-8.76 0-13.22 5.86t-4.45 17.44zm68.89-29.97v39q0 7.34 3.28 11t10.26 3.62q9.24 0 13.51-5.15t4.27-16.82v-31.65H504v60h-7.36l-1.29-8.05h-.48a17.89 17.89 0 0 1-7.6 6.79 25.16 25.16 0 0 1-11.1 2.36q-10.75 0-16.09-5.2t-5.35-16.65v-39.25zm86.03-1.09a34.25 34.25 0 0 1 7 .66l-1.24 8.44a29.84 29.84 0 0 0-6.45-.82 15.58 15.58 0 0 0-12.22 5.92 21.83 21.83 0 0 0-5.08 14.74v32.21h-8.92v-60h7.36l1 11.12h.43a26.21 26.21 0 0 1 7.9-9 17.55 17.55 0 0 1 10.22-3.27zm41.59 62.23q-12.79 0-19.8-8t-7-22.71q0-15.06 7.12-23.28t20.29-8.24a39.56 39.56 0 0 1 8.49.93 27.6 27.6 0 0 1 6.66 2.19l-2.74 7.72a41.53 41.53 0 0 0-6.45-2 28.29 28.29 0 0 0-6.18-.79q-17.95 0-17.95 23.34 0 11.07 4.38 17t13 5.92a39 39 0 0 0 15.1-3.23v8.05q-5.95 3.1-14.92 3.1zm53.74 0q-13.06 0-20.61-8.11T617 650.85q0-14.52 7-23.06t18.83-8.55q11.07 0 17.52 7.42t6.45 19.58V652h-40.59q.27 10.57 5.24 16.05t14 5.48a46.66 46.66 0 0 0 18.81-4.05v8.11a46.54 46.54 0 0 1-8.95 3 49.35 49.35 0 0 1-10.18.88zm-2.42-54.62a14.43 14.43 0 0 0-11.31 4.71q-4.22 4.71-5 13h30.79q0-8.6-3.76-13.17t-10.72-4.54z" class="cls-2"/></g><g id="text7890-3-1-1-4" class="cls-2"><path d="M121 716.1a6.11 6.11 0 0 1 1.5-4.57 5.49 5.49 0 0 1 7.47 0 6 6 0 0 1 1.56 4.55 6.09 6.09 0 0 1-1.56 4.57 5.15 5.15 0 0 1-3.71 1.51 5.1 5.1 0 0 1-3.76-1.51 6.22 6.22 0 0 1-1.5-4.55zm9.67 76.31h-8.87v-60h8.92zm59.27 0v-38.84q0-7.34-3.28-11T176.39 739q-9.24 0-13.54 5.09t-4.3 16.82v31.5h-8.92v-60h7.25l1.45 8.22h.43a18.33 18.33 0 0 1 7.68-6.87 24.57 24.57 0 0 1 11-2.44q10.64 0 16 5.23t5.37 16.74v39.17zm26.49-76.31a6.11 6.11 0 0 1 1.5-4.57 5.49 5.49 0 0 1 7.47 0 6 6 0 0 1 1.6 4.57 6.09 6.09 0 0 1-1.56 4.57 5.15 5.15 0 0 1-3.71 1.51 5.1 5.1 0 0 1-3.76-1.51 6.22 6.22 0 0 1-1.54-4.57zm9.67 76.31h-8.92v-60h8.92zM264 786a28.5 28.5 0 0 0 4.57-.36 29 29 0 0 0 3.49-.74v7a16.08 16.08 0 0 1-4.27 1.18 31.58 31.58 0 0 1-5.08.47q-17.09 0-17.09-18.35v-35.77h-8.44v-4.38l8.44-3.78 3.76-12.82h5.16v13.91h17.09v7.07h-17.05v35.33q0 5.42 2.53 8.33A8.71 8.71 0 0 0 264 786zm19.11-69.9a6.11 6.11 0 0 1 1.5-4.57 5.49 5.49 0 0 1 7.47 0 6 6 0 0 1 1.56 4.55 6.09 6.09 0 0 1-1.56 4.57 5.15 5.15 0 0 1-3.71 1.51 5.1 5.1 0 0 1-3.76-1.51 6.22 6.22 0 0 1-1.5-4.55zm9.67 76.31h-8.92v-60h8.92zm55.14 0l-1.77-8.55h-.43q-4.41 5.64-8.79 7.64a26.33 26.33 0 0 1-10.94 2q-8.76 0-13.73-4.6t-5-13.09q0-18.19 28.53-19.06l10-.33v-3.73q0-7.07-3-10.44t-9.54-3.37q-7.36 0-16.66 4.6l-2.74-7a41.4 41.4 0 0 1 9.54-3.78 40.6 40.6 0 0 1 10.4-1.37q10.53 0 15.61 4.77t5.08 15.28v41zM327.77 786q8.33 0 13.08-4.66t4.76-13v-5.42l-8.92.38q-10.64.38-15.34 3.37t-4.7 9.29q0 4.93 2.93 7.5t8.19 2.54zm64.16 0a28.5 28.5 0 0 0 4.57-.36 29.06 29.06 0 0 0 3.49-.74v7a16.09 16.09 0 0 1-4.27 1.18 31.58 31.58 0 0 1-5.08.47q-17.09 0-17.09-18.35v-35.77h-8.44v-4.38l8.44-3.78 3.76-12.82h5.16v13.91h17.09v7.07h-17.09v35.33q0 5.42 2.53 8.33a8.71 8.71 0 0 0 6.93 2.91zM411 716.1a6.11 6.11 0 0 1 1.5-4.57 5.49 5.49 0 0 1 7.47 0 6 6 0 0 1 1.56 4.55 6.09 6.09 0 0 1-1.56 4.57 5.15 5.15 0 0 1-3.71 1.51 5.1 5.1 0 0 1-3.76-1.51 6.22 6.22 0 0 1-1.5-4.55zm9.67 76.31h-8.92v-60h8.92zm31.82 0l-22.35-60h9.57L452.38 768q4.3 12.49 5.05 16.22h.43a124.48 124.48 0 0 1 3.74-12q3.14-9.12 14.11-39.8h9.57l-22.35 60zm67.12 1.09q-13.06 0-20.61-8.11t-7.55-22.52q0-14.52 7-23.06t18.83-8.55q11.07 0 17.52 7.42t6.45 19.58V764h-40.56q.27 10.57 5.24 16.05t14 5.48a46.66 46.66 0 0 0 18.81-4.05v8.11a46.54 46.54 0 0 1-8.95 3 49.35 49.35 0 0 1-10.18.91zm-2.42-54.62a14.43 14.43 0 0 0-11.31 4.71q-4.22 4.71-5 13h30.82q0-8.6-3.76-13.17t-10.75-4.53z" class="cls-2"/></g><path id="path3015" class="cls-3" d="M643.81 554.87a25.27 25.27 0 1 1-25.27-25.22 25.24 25.24 0 0 1 25.27 25.22z"/><g id="text3793" class="cls-2"><text class="cls-4" transform="translate(603.58 567.95)">R</text></g></svg>