<svg width="50" height="76" viewBox="0 0 50 76" xmlns="http://www.w3.org/2000/svg"><title>Combined-Shape</title><path d="M27.23 50.405h-4.703V76h-2.565V50.405h-5.654V47.84h1.889v-9.792h.002c.107-4.655 3.952-8.396 8.68-8.396 4.727 0 8.572 3.741 8.68 8.396h.002v9.792h1.888v2.565h-5.654v17.599h-2.564V50.405zM12.964 25.402a1.282 1.282 0 1 1-2.33-1.073c.137-.295.397-.767.794-1.356a15.602 15.602 0 0 1 2.444-2.818c2.813-2.558 6.47-4.096 11.01-4.096s8.197 1.538 11.01 4.096a15.602 15.602 0 0 1 2.444 2.818c.397.59.658 1.06.794 1.356a1.282 1.282 0 0 1-2.33 1.073 4.504 4.504 0 0 0-.125-.24c-.125-.225-.28-.48-.466-.756a13.04 13.04 0 0 0-2.042-2.354c-2.36-2.145-5.412-3.428-9.285-3.428s-6.925 1.283-9.284 3.428a13.052 13.052 0 0 0-2.043 2.354 9.902 9.902 0 0 0-.465.756c-.07.126-.112.209-.126.24zm-4.617-5.554a1.282 1.282 0 0 1-2.329-1.073c.174-.378.515-.994 1.037-1.77a20.655 20.655 0 0 1 3.236-3.731c3.725-3.387 8.565-5.422 14.589-5.422 6.023 0 10.863 2.035 14.588 5.422a20.655 20.655 0 0 1 3.236 3.73c.523.777.863 1.393 1.037 1.77a1.282 1.282 0 1 1-2.33 1.074 6.419 6.419 0 0 0-.184-.354c-.174-.315-.39-.67-.65-1.056a18.104 18.104 0 0 0-2.834-3.266c-3.271-2.974-7.506-4.756-12.863-4.756-5.357 0-9.593 1.782-12.864 4.756a18.104 18.104 0 0 0-2.834 3.266c-.26.385-.476.74-.65 1.056-.1.181-.16.302-.185.354zm-5.9-4.458a1.282 1.282 0 1 1-2.329-1.073c.223-.484.666-1.286 1.35-2.3A27.114 27.114 0 0 1 5.715 7.12C10.605 2.672 16.958 0 24.879 0c7.92 0 14.272 2.672 19.163 7.119a27.114 27.114 0 0 1 4.248 4.897c.683 1.014 1.126 1.816 1.35 2.3a1.282 1.282 0 1 1-2.33 1.073 8.893 8.893 0 0 0-.26-.5 19.254 19.254 0 0 0-.887-1.44 24.564 24.564 0 0 0-3.846-4.433C37.88 4.982 32.132 2.565 24.88 2.565c-7.254 0-13.002 2.417-17.439 6.451a24.564 24.564 0 0 0-3.846 4.433 19.255 19.255 0 0 0-.886 1.44c-.138.25-.224.422-.26.5z" fill="#FFF"/></svg>